<svg width="155" height="36" viewBox="0 0 155 36" fill="none" xmlns="http://www.w3.org/2000/svg">
<path d="M0.420903 29.7739L14.2197 2.18458C14.5526 1.51832 15.067 0.959741 15.7037 0.573297C16.3404 0.186853 17.0733 -0.011705 17.818 0.000533468V0.000533468C18.4865 0.0114113 19.1413 0.191808 19.721 0.524823C20.3008 0.857837 20.7865 1.33257 21.1327 1.90454C21.4789 2.47652 21.6742 3.12701 21.7004 3.79509C21.7266 4.46316 21.5827 5.12694 21.2823 5.72425L7.52534 33.3136C7.19611 33.9702 6.69064 34.5223 6.06551 34.908C5.44037 35.2937 4.72023 35.4979 3.98567 35.4976V35.4976C3.30866 35.5038 2.64143 35.3358 2.04803 35.0098C1.45463 34.6839 0.954985 34.2108 0.597061 33.6361C0.239137 33.0614 0.0349506 32.4044 0.00410252 31.728C-0.0267456 31.0517 0.116781 30.3788 0.420903 29.7739V29.7739Z" fill="url(#paint0_linear_243_1773)"/>
<path d="M22.9894 11.1553L13.6842 29.7741C13.3838 30.3767 13.2422 31.046 13.2726 31.7186C13.303 32.3913 13.5045 33.045 13.8581 33.618C14.2116 34.1911 14.7055 34.6645 15.293 34.9934C15.8805 35.3223 16.5422 35.4959 17.2155 35.4978V35.4978C17.9501 35.4981 18.6702 35.294 19.2953 34.9082C19.9205 34.5225 20.4259 33.9704 20.7552 33.3138L30.0688 14.6866C30.3694 14.0834 30.5111 13.4133 30.4803 12.74C30.4495 12.0667 30.2472 11.4124 29.8927 10.8391C29.5382 10.2659 29.0431 9.79264 28.4545 9.4643C27.8659 9.13595 27.2031 8.96336 26.5291 8.96289V8.96289C25.7939 8.96436 25.0735 9.17016 24.4485 9.55731C23.8234 9.94445 23.3183 10.4977 22.9894 11.1553Z" fill="url(#paint1_linear_243_1773)"/>
<path d="M26.9474 29.7738L29.9766 23.7656C30.3058 23.1089 30.8113 22.5569 31.4364 22.1712C32.0616 21.7854 32.7817 21.5813 33.5163 21.5815C34.1903 21.582 34.853 21.7546 35.4417 22.0829C36.0303 22.4113 36.5253 22.8845 36.8799 23.4578C37.2344 24.031 37.4366 24.6853 37.4674 25.3587C37.4982 26.032 37.3566 26.702 37.0559 27.3053L34.0183 33.3135C33.6913 33.9701 33.1875 34.5224 32.5636 34.9082C31.9398 35.2941 31.2206 35.4982 30.487 35.4975C29.813 35.4971 29.1503 35.3245 28.5616 34.9961C27.973 34.6678 27.478 34.1946 27.1235 33.6213C26.7689 33.048 26.5667 32.3937 26.5359 31.7204C26.5051 31.0471 26.6467 30.3771 26.9474 29.7738Z" fill="url(#paint2_linear_243_1773)"/>
<path d="M50.1225 19.1885C49.9802 19.6237 49.838 20.0253 49.7124 20.36C49.6019 20.6761 49.447 20.9747 49.2522 21.247C49.0855 21.4808 48.8643 21.6704 48.6079 21.7993C48.3111 21.9433 47.9835 22.0122 47.6539 22.0002C47.3652 22.0065 47.0789 21.9464 46.8171 21.8244C46.5694 21.7174 46.3428 21.5673 46.1477 21.3809C45.9586 21.2009 45.8077 20.9846 45.7042 20.745C45.6011 20.5308 45.5468 20.2965 45.5452 20.0588C45.5364 19.9083 45.5364 19.7574 45.5452 19.6069C45.5637 19.4513 45.5944 19.2974 45.6372 19.1467C45.6874 18.9793 45.746 18.7869 45.8213 18.5777C45.8966 18.3685 45.997 18.1007 46.1226 17.7827L49.8129 8.25154C50.0248 7.69367 50.2089 7.22506 50.3651 6.84571C50.5213 6.46636 50.672 6.13722 50.817 5.85829C50.9284 5.61359 51.0689 5.3832 51.2354 5.17211C51.3781 4.99977 51.5411 4.84524 51.7208 4.71187C51.9823 4.53101 52.2629 4.37947 52.5576 4.26C52.9149 4.13382 53.2916 4.07151 53.6705 4.0759C54.3695 4.07978 55.0514 4.29251 55.6286 4.68677C55.8254 4.81124 55.9983 4.96995 56.1391 5.15537C56.3075 5.37439 56.4533 5.60989 56.5742 5.85829C56.7436 6.18425 56.8944 6.5195 57.0261 6.86245L57.57 8.26827L61.2686 17.6823C61.3858 17.9919 61.4862 18.2513 61.5615 18.4689C61.6368 18.6864 61.7122 18.8789 61.7707 19.0546C61.8225 19.2074 61.8617 19.3641 61.8879 19.5232C61.9007 19.6764 61.9007 19.8303 61.8879 19.9835C61.8822 20.2233 61.8281 20.4596 61.7289 20.678C61.6182 20.9141 61.4714 21.1315 61.2938 21.3224C61.0978 21.5202 60.8683 21.6817 60.6159 21.7993C60.3227 21.9317 60.0047 22.0002 59.6829 22.0002C59.3612 22.0002 59.0431 21.9317 58.7499 21.7993C58.4914 21.6664 58.2656 21.4777 58.0888 21.247C57.8884 20.9756 57.7277 20.6769 57.6118 20.36C57.4696 20.017 57.3273 19.6153 57.1851 19.1634L56.8922 18.3266H50.4153L50.1225 19.1885ZM53.6621 8.59462L51.5283 14.9961H55.8211L53.6621 8.59462Z" fill="url(#paint3_linear_243_1773)"/>
<path d="M65.8795 7.65735C65.6807 7.65873 65.4821 7.64474 65.2854 7.61551C65.1375 7.60515 64.9914 7.57706 64.8503 7.53183C64.6906 7.46558 64.539 7.38135 64.3984 7.28079C64.2402 7.16158 64.1161 7.00285 64.0386 6.82054C63.9225 6.58682 63.865 6.32833 63.8712 6.06742C63.8406 5.69619 63.9413 5.326 64.1557 5.02142C64.3412 4.79642 64.5841 4.62581 64.8586 4.52771C65.1487 4.42496 65.4546 4.37398 65.7624 4.37709H74.8919H76.0132C76.2597 4.38071 76.5056 4.40028 76.7496 4.43566C76.9276 4.4636 77.1 4.52012 77.26 4.60302C77.4137 4.69887 77.5543 4.81419 77.6784 4.94611C77.8842 5.14204 78.047 5.3786 78.1564 5.64078C78.2659 5.90295 78.3197 6.18502 78.3144 6.46909C78.3135 6.63258 78.2938 6.79542 78.2558 6.95443C78.2035 7.12333 78.1274 7.28392 78.0299 7.43141C77.9034 7.63298 77.7637 7.82588 77.6115 8.0088C77.4358 8.22637 77.1931 8.49415 76.9086 8.8456L68.4736 18.4102H76.0048C76.6157 18.4102 77.0927 18.4102 77.419 18.4604C77.7351 18.4843 78.032 18.6209 78.2558 18.8454C78.3985 18.9933 78.5171 19.1628 78.6073 19.3475C78.7194 19.5674 78.7741 19.812 78.7663 20.0587C78.7667 20.2823 78.7241 20.504 78.6407 20.7114C78.5552 20.9317 78.424 21.1313 78.2558 21.2972C78.0308 21.5198 77.7345 21.6561 77.419 21.6821C77.0787 21.7156 76.6101 21.7323 76.0132 21.7323H66.8753H65.6034C65.3232 21.7301 65.0436 21.7077 64.7666 21.6654C64.5602 21.6305 64.3601 21.5656 64.1725 21.4729C63.9978 21.3686 63.8375 21.2421 63.6955 21.0964C63.4559 20.8583 63.2679 20.5735 63.1432 20.2596C63.0263 19.961 62.9667 19.643 62.9675 19.3223C62.9625 19.1304 62.985 18.9388 63.0344 18.7533C63.0945 18.5606 63.1819 18.3774 63.2938 18.2094C63.4413 17.9772 63.6093 17.7588 63.7959 17.5567C64.0218 17.314 64.2896 17.0044 64.6327 16.6362L72.5405 7.67408H66.6327L65.8795 7.65735Z" fill="url(#paint4_linear_243_1773)"/>
<path d="M82.0214 7.6573C81.831 7.65742 81.6408 7.64343 81.4524 7.61546C81.3045 7.6051 81.1584 7.57701 81.0173 7.53178C80.8576 7.46553 80.706 7.3813 80.5654 7.28074C80.4072 7.16153 80.2831 7.00281 80.2056 6.8205C80.0894 6.58677 80.032 6.32828 80.0382 6.06738C80.0148 5.69311 80.1245 5.32262 80.3478 5.02138C80.5318 4.79479 80.7752 4.62384 81.0507 4.52766C81.3381 4.42554 81.6412 4.37457 81.9461 4.37704H91.0589H92.1802C92.4267 4.38066 92.6726 4.40023 92.9166 4.43562C93.0946 4.46355 93.267 4.52007 93.427 4.60298C93.5807 4.69882 93.7213 4.81414 93.8454 4.94606C94.0512 5.142 94.2139 5.37855 94.3234 5.64073C94.4329 5.90291 94.4867 6.18497 94.4814 6.46904C94.4821 6.63317 94.4595 6.79657 94.4144 6.95439C94.369 7.12437 94.2954 7.28558 94.1969 7.43136C94.0704 7.63293 93.9307 7.82583 93.7785 8.00875L93.0756 8.84555L84.6406 18.4102H92.1718C92.7827 18.4102 93.2513 18.4102 93.586 18.4604C93.9021 18.4843 94.199 18.6209 94.4228 18.8453C94.5628 18.9955 94.6811 19.1645 94.7743 19.3474C94.8864 19.5673 94.9411 19.812 94.9333 20.0587C94.9337 20.2823 94.8911 20.5039 94.8077 20.7114C94.7222 20.9316 94.591 21.1313 94.4228 21.2971C94.1978 21.5198 93.9015 21.6561 93.586 21.6821C93.2401 21.7155 92.7715 21.7323 92.1802 21.7323H83.0423H81.7704C81.4902 21.73 81.2106 21.7076 80.9336 21.6653C80.7272 21.6304 80.5271 21.5656 80.3395 21.4729C80.1636 21.3667 80.0007 21.2403 79.8541 21.0963C79.622 20.8687 79.4386 20.5963 79.3149 20.2957C79.1912 19.9951 79.1298 19.6724 79.1345 19.3474C79.1295 19.1555 79.152 18.9639 79.2014 18.7784C79.2615 18.5856 79.3489 18.4025 79.4608 18.2345C79.6083 18.0023 79.7763 17.7838 79.9629 17.5818C80.1888 17.3391 80.4566 17.0295 80.7997 16.6613L88.7158 7.67403H82.808L82.0214 7.6573Z" fill="url(#paint5_linear_243_1773)"/>
<path d="M101.36 20.1926C101.327 20.6082 101.149 20.9991 100.858 21.2972C100.664 21.4923 100.441 21.656 100.197 21.7826C99.8986 21.9327 99.5682 22.0074 99.2344 22.0001C98.9237 22.0098 98.6143 21.9545 98.3261 21.8378C98.0379 21.7211 97.7773 21.5455 97.5608 21.3223C97.2634 21.0173 97.0828 20.6174 97.0504 20.1926C96.993 19.5668 96.9679 18.9383 96.9751 18.3098V7.74942C96.9779 7.11755 97.0142 6.48627 97.0839 5.85825C97.1199 5.44176 97.3005 5.051 97.5943 4.75367C97.7888 4.56755 98.0085 4.4098 98.247 4.28507C98.5453 4.12545 98.8795 4.04479 99.2177 4.05076C99.5292 4.04163 99.8391 4.09798 100.127 4.21619C100.416 4.33439 100.676 4.5118 100.891 4.73694C101.183 5.04808 101.36 5.44955 101.393 5.87499C101.451 6.49527 101.476 7.11814 101.469 7.74105V18.3098C101.466 18.9389 101.429 19.5674 101.36 20.1926V20.1926Z" fill="url(#paint6_linear_243_1773)"/>
<path d="M116.146 14.9459V7.53183C116.138 6.93955 116.163 6.34729 116.221 5.75781C116.256 5.36561 116.428 4.9982 116.707 4.72018C116.884 4.54669 117.084 4.39755 117.301 4.27667C117.578 4.1266 117.89 4.0516 118.205 4.05911C118.493 4.05992 118.777 4.11973 119.041 4.23483C119.31 4.34194 119.557 4.49799 119.769 4.69508C120.047 4.98202 120.214 5.35898 120.238 5.75781C120.28 6.19295 120.297 6.78708 120.297 7.53183V17.5734C120.297 18.1508 120.297 18.6362 120.297 19.0211C120.294 19.3609 120.26 19.6998 120.196 20.0336C120.152 20.2867 120.064 20.5302 119.937 20.7533C119.794 20.9787 119.616 21.1793 119.41 21.3474C119.203 21.5104 118.982 21.6533 118.749 21.7742C118.396 21.9426 118.009 22.023 117.619 22.0085C117.308 22.0152 116.999 21.9641 116.707 21.8579C116.441 21.7531 116.2 21.5967 115.995 21.3976C115.731 21.1451 115.496 20.8645 115.293 20.5608C115.05 20.2177 114.765 19.791 114.456 19.2889L109.293 11.2974V18.5609C109.293 18.9374 109.293 19.2638 109.293 19.5567C109.289 19.8114 109.269 20.0657 109.234 20.3181C109.207 20.5196 109.154 20.7165 109.075 20.9039C109.002 21.0688 108.9 21.2191 108.774 21.3474C108.593 21.53 108.384 21.6825 108.155 21.7993C107.875 21.9426 107.565 22.0145 107.251 22.0085C106.965 22.0052 106.681 21.9514 106.414 21.8495C106.146 21.7464 105.906 21.5832 105.711 21.3725C105.437 21.0814 105.266 20.7078 105.226 20.3098C105.168 19.7287 105.143 19.1448 105.15 18.5609V8.42721C105.15 7.85818 105.15 7.3812 105.15 6.99628C105.153 6.66197 105.187 6.32864 105.251 6.00048C105.293 5.75223 105.381 5.51395 105.51 5.29757C105.658 5.08101 105.835 4.88658 106.038 4.72018C106.232 4.55288 106.445 4.4096 106.673 4.29341C107.302 4.0128 108.015 3.98287 108.665 4.20973C108.93 4.31446 109.172 4.47091 109.376 4.66997C109.634 4.92208 109.861 5.20285 110.054 5.50677L110.891 6.74524L116.171 14.9626" fill="url(#paint7_linear_243_1773)"/>
<path d="M134.589 10.9711C135.175 10.9711 135.627 10.9711 135.953 11.0213C136.27 11.0414 136.568 11.1786 136.79 11.4063C136.926 11.5455 137.041 11.7032 137.133 11.8749C137.247 12.0974 137.305 12.3445 137.3 12.5945C137.301 12.817 137.256 13.0373 137.169 13.2417C137.081 13.4461 136.952 13.6303 136.79 13.7828C136.566 14.0072 136.269 14.1438 135.953 14.1677C135.627 14.1677 135.175 14.2179 134.606 14.2179H128.455V18.268H135.384C135.865 18.2607 136.345 18.2803 136.823 18.3266C137.14 18.3625 137.434 18.504 137.66 18.7283C137.811 18.8755 137.938 19.0448 138.037 19.2303C138.165 19.4601 138.229 19.7204 138.221 19.9835C138.223 20.2195 138.176 20.4535 138.084 20.6708C137.992 20.8882 137.856 21.0843 137.685 21.247C137.459 21.4702 137.164 21.6115 136.849 21.6487C136.489 21.6487 136.012 21.7073 135.393 21.7073H127.761H126.539C126.259 21.7077 125.979 21.6853 125.702 21.6403C125.507 21.6043 125.318 21.5394 125.142 21.4479C124.966 21.3379 124.801 21.2118 124.648 21.0713C124.501 20.9368 124.374 20.7818 124.271 20.6111C124.175 20.4249 124.11 20.2242 124.079 20.0169C124.033 19.7402 124.008 19.4605 124.004 19.1801C124.004 18.8538 124.004 18.4605 124.004 17.9919V8.08416C124.004 7.58208 124.004 7.18041 124.004 6.86243C124.005 6.58188 124.031 6.30197 124.079 6.02563C124.11 5.83166 124.175 5.64471 124.271 5.47334C124.4 5.30999 124.542 5.15873 124.698 5.02147C124.843 4.87555 125.006 4.74898 125.184 4.64491C125.365 4.55215 125.56 4.48727 125.761 4.45244C126.038 4.41317 126.318 4.39082 126.598 4.3855H127.786H135.225C135.819 4.3855 136.288 4.3855 136.614 4.43571C136.93 4.45957 137.227 4.59617 137.451 4.82063C137.595 4.97155 137.718 5.14029 137.819 5.32271C137.934 5.54186 137.992 5.78657 137.987 6.034C137.983 6.49731 137.8 6.94122 137.476 7.27246C137.251 7.4951 136.955 7.63138 136.639 7.65739C136.296 7.65739 135.803 7.7076 135.25 7.7076H128.514V11.0046L134.589 10.9711Z" fill="url(#paint8_linear_243_1773)"/>
<path d="M140.815 7.9083C140.477 7.88062 140.161 7.72858 139.928 7.48153C139.78 7.3241 139.651 7.14999 139.543 6.96272C139.397 6.70907 139.327 6.4184 139.342 6.12592C139.343 5.88099 139.394 5.63886 139.493 5.41464C139.585 5.18218 139.725 4.97136 139.903 4.7954C140.018 4.66553 140.158 4.56009 140.315 4.48535C140.471 4.4106 140.642 4.36807 140.815 4.36027C141.192 4.36027 141.702 4.31006 142.355 4.31006H151.995C152.639 4.31006 153.149 4.31006 153.526 4.36863C153.867 4.39662 154.185 4.54845 154.421 4.7954C154.569 4.95283 154.698 5.12694 154.806 5.31422C154.943 5.55605 155.01 5.83143 154.999 6.10918C155.001 6.35669 154.953 6.60209 154.858 6.8307C154.763 7.05931 154.623 7.26644 154.446 7.43969C154.198 7.68412 153.873 7.83493 153.526 7.86646C153.149 7.86646 152.639 7.92504 151.995 7.92504H149.375V18.3097C149.385 18.9381 149.363 19.5665 149.308 20.1925C149.272 20.609 149.092 20.9998 148.798 21.2971C148.597 21.4803 148.372 21.6351 148.129 21.7574C147.828 21.9191 147.491 21.9998 147.15 21.9917C146.862 21.9875 146.578 21.9278 146.313 21.8159C146.028 21.7017 145.769 21.5309 145.551 21.3138C145.251 21.0096 145.068 20.6099 145.032 20.1842C144.964 19.559 144.933 18.9302 144.94 18.3014V7.96688H142.355C141.685 7.96688 141.175 7.94177 140.815 7.9083Z" fill="url(#paint9_linear_243_1773)"/>
<path d="M48.6582 25.3557C49.0847 25.3591 49.5102 25.3983 49.9302 25.4729C49.9547 25.4728 49.979 25.4778 50.0015 25.4876C50.024 25.4975 50.0442 25.512 50.0607 25.5301C50.0773 25.5482 50.0899 25.5696 50.0977 25.5929C50.1054 25.6162 50.1082 25.6409 50.1059 25.6653V26.1674C50.1059 26.3097 50.0306 26.3431 49.9051 26.3348C49.497 26.2821 49.0864 26.2514 48.675 26.2427C46.8591 26.2427 46.3319 26.8536 46.3068 29.3305C46.2817 31.8074 46.834 32.3932 48.675 32.4267C49.0864 32.418 49.497 32.3873 49.9051 32.3346H49.9553C49.9761 32.3332 49.9971 32.3365 50.0165 32.3441C50.036 32.3517 50.0536 32.3636 50.0679 32.3787C50.0823 32.3939 50.0932 32.4121 50.0997 32.4319C50.1063 32.4518 50.1084 32.4729 50.1059 32.4936V32.9957C50.1082 33.0454 50.0913 33.0941 50.0585 33.1315C50.0257 33.169 49.9797 33.1923 49.9302 33.1965C49.5095 33.2647 49.0843 33.301 48.6582 33.3053C46.2399 33.3053 45.311 32.2175 45.311 29.3305C45.311 26.4436 46.2399 25.3557 48.6582 25.3557Z" fill="url(#paint10_linear_243_1773)"/>
<path d="M53.771 30.3763C53.771 28.3764 54.6078 27.4475 56.2814 27.4475C57.955 27.4475 58.7918 28.3764 58.7918 30.3763C58.7918 32.3763 58.0052 33.3051 56.2814 33.3051C54.5576 33.3051 53.771 32.3763 53.771 30.3763ZM57.8546 30.3763C57.8546 28.778 57.4194 28.2592 56.3065 28.2592C55.1936 28.2592 54.7584 28.778 54.7584 30.3763C54.7584 31.9746 55.1852 32.4934 56.3065 32.4934C57.4278 32.4934 57.8546 31.983 57.8546 30.3763V30.3763Z" fill="url(#paint11_linear_243_1773)"/>
<path d="M67.7957 29.4558V32.9871C67.8001 33.0123 67.7984 33.0381 67.7907 33.0625C67.783 33.0868 67.7696 33.109 67.7515 33.1271C67.7334 33.1451 67.7113 33.1586 67.6869 33.1662C67.6626 33.1739 67.6367 33.1756 67.6116 33.1712H67.0258C67.0007 33.1756 66.9748 33.1739 66.9504 33.1662C66.9261 33.1586 66.904 33.1451 66.8859 33.1271C66.8678 33.109 66.8544 33.0868 66.8467 33.0625C66.839 33.0381 66.8373 33.0123 66.8417 32.9871V29.5981C66.8417 28.5856 66.5907 28.2592 65.8794 28.2592C65.258 28.2787 64.657 28.4858 64.1556 28.8533V33.0373C64.1583 33.0611 64.1555 33.0851 64.1476 33.1076C64.1398 33.1301 64.1269 33.1506 64.11 33.1675C64.0931 33.1844 64.0727 33.1972 64.0501 33.2051C64.0276 33.213 64.0036 33.2157 63.9799 33.2131H63.3774C63.354 33.2143 63.3306 33.2105 63.3087 33.2021C63.2869 33.1937 63.267 33.1808 63.2504 33.1643C63.2339 33.1477 63.221 33.1278 63.2126 33.106C63.2042 33.0841 63.2004 33.0607 63.2016 33.0373V27.7739C63.2016 27.6483 63.2602 27.5898 63.3941 27.5898H63.9296C63.9548 27.5853 63.9807 27.5871 64.005 27.5947C64.0294 27.6024 64.0515 27.6159 64.0696 27.6339C64.0876 27.652 64.1011 27.6741 64.1088 27.6985C64.1165 27.7229 64.1182 27.7487 64.1137 27.7739V28.0918C64.6785 27.675 65.3616 27.4493 66.0635 27.4475C67.2601 27.4475 67.7957 28.1002 67.7957 29.4558Z" fill="url(#paint12_linear_243_1773)"/>
<path d="M76.9085 30.4853C76.9085 30.6359 76.8248 30.7029 76.6742 30.7029H73.1178C73.1178 32.0752 73.6785 32.4685 74.9169 32.4685C75.3726 32.4626 75.8266 32.4121 76.2725 32.3179H76.3227C76.4315 32.3179 76.4734 32.3765 76.4734 32.4853V32.912C76.4806 32.9597 76.4689 33.0083 76.4408 33.0474C76.4126 33.0865 76.3702 33.113 76.3227 33.1212C75.8325 33.2219 75.3337 33.2751 74.8332 33.2802C72.9672 33.2802 72.1304 32.4434 72.1304 30.3514C72.1304 28.2594 72.917 27.4226 74.5571 27.4226C76.1972 27.4226 76.9085 28.3598 76.9085 30.4853ZM73.1178 29.9581H75.9629C75.9043 28.7029 75.5027 28.2845 74.5738 28.2845C73.645 28.2845 73.1764 28.7364 73.1178 29.9581Z" fill="url(#paint13_linear_243_1773)"/>
<path d="M85.193 32.9454C85.2023 32.9839 85.2023 33.0241 85.193 33.0626C85.193 33.1379 85.1428 33.1714 85.0424 33.1714H84.4232C84.3797 33.1731 84.3366 33.1632 84.2983 33.1426C84.2601 33.1219 84.228 33.0914 84.2056 33.0542L82.8583 31.0543L81.5027 33.0542C81.4803 33.0914 81.4482 33.1219 81.41 33.1426C81.3717 33.1632 81.3286 33.1731 81.2852 33.1714H80.6576C80.5571 33.1714 80.5069 33.1714 80.5069 33.0626C80.4977 33.0241 80.4977 32.9839 80.5069 32.9454L82.2977 30.3346L80.5571 27.8242C80.5468 27.7858 80.5468 27.7454 80.5571 27.7071C80.5571 27.6401 80.5571 27.6066 80.7078 27.6066H81.3103C81.3537 27.6049 81.3968 27.6148 81.4351 27.6355C81.4733 27.6561 81.5054 27.6866 81.5278 27.7238L82.8667 29.6317L84.1721 27.7238C84.1946 27.6866 84.2266 27.6561 84.2649 27.6355C84.3031 27.6148 84.3463 27.6049 84.3897 27.6066H85.0089C85.1093 27.6066 85.1595 27.6401 85.1595 27.7071C85.1659 27.7458 85.1659 27.7854 85.1595 27.8242L83.4274 30.3346L85.193 32.9454Z" fill="url(#paint14_linear_243_1773)"/>
<path d="M89.2097 25.7741C89.2085 25.7481 89.2127 25.7222 89.2218 25.6979C89.231 25.6735 89.245 25.6513 89.263 25.6326C89.281 25.6138 89.3026 25.5989 89.3265 25.5887C89.3504 25.5785 89.3761 25.5732 89.4021 25.5733H90.0465C90.0732 25.5704 90.1002 25.5737 90.1254 25.5829C90.1506 25.5921 90.1734 25.607 90.192 25.6264C90.2106 25.6458 90.2245 25.6692 90.2326 25.6948C90.2408 25.7204 90.2429 25.7475 90.2389 25.7741V26.4268C90.2401 26.4524 90.236 26.4779 90.2267 26.5018C90.2175 26.5257 90.2033 26.5474 90.1852 26.5655C90.1671 26.5837 90.1454 26.5978 90.1215 26.607C90.0976 26.6163 90.072 26.6205 90.0465 26.6193H89.4021C89.3517 26.6172 89.304 26.5963 89.2683 26.5606C89.2327 26.525 89.2117 26.4772 89.2097 26.4268V25.7741ZM89.4189 33.1714C89.3951 33.1741 89.3711 33.1714 89.3486 33.1635C89.3261 33.1556 89.3056 33.1427 89.2887 33.1258C89.2718 33.109 89.259 33.0885 89.2511 33.066C89.2432 33.0434 89.2405 33.0194 89.2431 32.9957V27.774C89.2387 27.7489 89.2404 27.723 89.2481 27.6987C89.2558 27.6743 89.2692 27.6522 89.2873 27.6341C89.3054 27.6161 89.3275 27.6026 89.3519 27.5949C89.3762 27.5872 89.4021 27.5855 89.4272 27.59H90.013C90.0381 27.5855 90.064 27.5872 90.0883 27.5949C90.1127 27.6026 90.1349 27.6161 90.1529 27.6341C90.171 27.6522 90.1844 27.6743 90.1921 27.6987C90.1998 27.723 90.2015 27.7489 90.1971 27.774V32.9957C90.1997 33.0194 90.197 33.0434 90.1891 33.066C90.1812 33.0885 90.1684 33.109 90.1515 33.1258C90.1346 33.1427 90.1142 33.1556 90.0916 33.1635C90.0691 33.1714 90.0451 33.1741 90.0214 33.1714H89.4189Z" fill="url(#paint15_linear_243_1773)"/>
<path d="M94.5735 30.3764C94.5735 28.3765 95.4103 27.4476 97.0839 27.4476C98.7575 27.4476 99.5943 28.3765 99.5943 30.3764C99.5943 32.3764 98.7575 33.3052 97.0839 33.3052C95.4103 33.3052 94.5735 32.3764 94.5735 30.3764ZM98.6571 30.3764C98.6571 28.7781 98.2219 28.2593 97.109 28.2593C95.996 28.2593 95.5609 28.7781 95.5609 30.3764C95.5609 31.9747 95.996 32.4935 97.109 32.4935C98.2219 32.4935 98.6654 31.9831 98.6654 30.3764H98.6571ZM95.9375 26.092C95.9355 26.0615 95.9434 26.0313 95.96 26.0057C95.9766 25.9801 96.0009 25.9604 96.0295 25.9497L98.155 25.2468H98.2052C98.2638 25.2468 98.2972 25.2468 98.2972 25.3556V25.9414C98.3022 25.9713 98.2954 26.0019 98.2782 26.0269C98.261 26.0518 98.2349 26.0692 98.2052 26.0753L96.0714 26.7112H96.0128C95.9542 26.7112 95.9375 26.7112 95.9375 26.6108V26.092Z" fill="url(#paint16_linear_243_1773)"/>
<path d="M108.607 29.4558V32.9871C108.611 33.0123 108.609 33.0381 108.602 33.0625C108.594 33.0868 108.58 33.109 108.562 33.1271C108.544 33.1451 108.522 33.1586 108.498 33.1662C108.473 33.1739 108.448 33.1756 108.422 33.1712H107.845C107.82 33.1756 107.794 33.1739 107.77 33.1662C107.745 33.1586 107.723 33.1451 107.705 33.1271C107.687 33.109 107.674 33.0868 107.666 33.0625C107.658 33.0381 107.657 33.0123 107.661 32.9871V29.5981C107.661 28.5856 107.402 28.2592 106.69 28.2592C106.086 28.2861 105.503 28.493 105.017 28.8533V33.0373C105.018 33.0607 105.014 33.0841 105.006 33.106C104.997 33.1278 104.984 33.1477 104.968 33.1643C104.951 33.1808 104.931 33.1937 104.91 33.2021C104.888 33.2105 104.864 33.2143 104.841 33.2131H104.23C104.207 33.2144 104.184 33.2107 104.162 33.2022C104.141 33.1938 104.122 33.1807 104.106 33.164C104.09 33.1473 104.078 33.1273 104.07 33.1054C104.063 33.0835 104.06 33.0603 104.063 33.0373V27.7739C104.058 27.7487 104.06 27.7229 104.068 27.6985C104.075 27.6741 104.089 27.652 104.107 27.6339C104.125 27.6159 104.147 27.6024 104.171 27.5947C104.196 27.5871 104.222 27.5853 104.247 27.5898H104.782C104.808 27.5853 104.833 27.5871 104.858 27.5947C104.882 27.6024 104.904 27.6159 104.922 27.6339C104.94 27.652 104.954 27.6741 104.961 27.6985C104.969 27.7229 104.971 27.7487 104.966 27.7739V28.0918C105.533 27.6781 106.215 27.4527 106.916 27.4475C108.079 27.4475 108.607 28.1002 108.607 29.4558Z" fill="url(#paint17_linear_243_1773)"/>
<path d="M121 32.4518C121.021 32.4493 121.044 32.4516 121.064 32.4586C121.085 32.4656 121.104 32.4771 121.12 32.4922C121.136 32.5074 121.149 32.5259 121.157 32.5463C121.165 32.5668 121.168 32.5888 121.167 32.6108V33.0459C121.169 33.0704 121.166 33.095 121.159 33.1183C121.151 33.1416 121.138 33.163 121.122 33.1811C121.105 33.1993 121.085 33.2137 121.063 33.2236C121.04 33.2335 121.016 33.2385 120.991 33.2384C120.715 33.2872 120.435 33.3096 120.154 33.3053C118.958 33.3053 118.481 32.7949 118.481 31.4058V28.3766H117.711C117.686 28.381 117.66 28.3793 117.636 28.3716C117.611 28.3639 117.589 28.3505 117.571 28.3324C117.553 28.3143 117.539 28.2922 117.532 28.2678C117.524 28.2435 117.522 28.2176 117.527 28.1925V27.7741C117.522 27.7489 117.524 27.7231 117.532 27.6987C117.539 27.6744 117.553 27.6522 117.571 27.6341C117.589 27.6161 117.611 27.6026 117.636 27.595C117.66 27.5873 117.686 27.5856 117.711 27.59H118.481V26.0335C118.481 25.8996 118.539 25.8411 118.665 25.8411H119.251C119.376 25.8411 119.435 25.8996 119.435 26.0335V27.6151H120.874C121.008 27.6151 121.066 27.6737 121.066 27.7992V28.2176C121.066 28.3431 121.008 28.4017 120.874 28.4017H119.435V31.2635C119.435 32.2761 119.61 32.5187 120.322 32.5187C120.534 32.532 120.746 32.532 120.958 32.5187L121 32.4518Z" fill="url(#paint18_linear_243_1773)"/>
<path d="M124.983 30.3763C124.983 28.3764 125.82 27.4475 127.493 27.4475C129.167 27.4475 130.004 28.3764 130.004 30.3763C130.004 32.3763 129.209 33.3051 127.493 33.3051C125.778 33.3051 124.983 32.3763 124.983 30.3763ZM129.067 30.3763C129.067 28.778 128.631 28.2592 127.518 28.2592C126.405 28.2592 125.97 28.778 125.97 30.3763C125.97 31.9746 126.405 32.4934 127.518 32.4934C128.631 32.4934 129.067 31.983 129.067 30.3763Z" fill="url(#paint19_linear_243_1773)"/>
<path d="M137.25 32.4518C137.272 32.4491 137.294 32.4513 137.314 32.4583C137.335 32.4654 137.353 32.477 137.369 32.4923C137.384 32.5077 137.396 32.5263 137.403 32.5469C137.41 32.5674 137.412 32.5893 137.409 32.6108V33.0459C137.411 33.0704 137.409 33.095 137.401 33.1183C137.393 33.1416 137.381 33.163 137.364 33.1811C137.347 33.1993 137.327 33.2137 137.305 33.2236C137.282 33.2335 137.258 33.2385 137.233 33.2384C136.957 33.2872 136.677 33.3096 136.397 33.3053C135.2 33.3053 134.723 32.7949 134.723 31.4058V28.3766H133.962C133.828 28.3766 133.769 28.318 133.769 28.1925V27.7741C133.769 27.6486 133.828 27.59 133.962 27.59H134.74V26.0335C134.74 25.8996 134.798 25.8411 134.932 25.8411H135.51C135.635 25.8411 135.694 25.8996 135.694 26.0335V27.6151H137.141C137.167 27.6107 137.192 27.6124 137.217 27.6201C137.241 27.6278 137.263 27.6412 137.281 27.6593C137.299 27.6773 137.313 27.6995 137.32 27.7238C137.328 27.7482 137.33 27.774 137.325 27.7992V28.2176C137.33 28.2427 137.328 28.2686 137.32 28.2929C137.313 28.3173 137.299 28.3394 137.281 28.3575C137.263 28.3756 137.241 28.389 137.217 28.3967C137.192 28.4044 137.167 28.4061 137.141 28.4017H135.66V31.2635C135.66 32.2761 135.836 32.5187 136.547 32.5187C136.759 32.532 136.971 32.532 137.183 32.5187L137.25 32.4518Z" fill="url(#paint20_linear_243_1773)"/>
<path d="M145.827 29.565V32.9875C145.832 33.0126 145.83 33.0385 145.822 33.0628C145.815 33.0872 145.801 33.1093 145.783 33.1274C145.765 33.1455 145.743 33.1589 145.719 33.1666C145.694 33.1743 145.668 33.176 145.643 33.1716H145.099C144.966 33.1716 144.907 33.113 144.907 32.9875V32.6862C144.38 33.1046 143.722 33.3239 143.049 33.3054C141.844 33.3054 141.175 32.703 141.175 31.5565C141.175 30.4018 141.861 29.8829 143.576 29.8829H143.618C144.038 29.8911 144.457 29.9218 144.873 29.975V29.6319C144.873 28.5524 144.572 28.3014 143.484 28.3014C142.979 28.305 142.474 28.3554 141.978 28.452H141.936C141.828 28.452 141.769 28.4018 141.769 28.293V27.8495C141.769 27.724 141.819 27.657 141.92 27.6403C142.473 27.5483 143.032 27.498 143.593 27.4897C145.2 27.4478 145.827 28.0169 145.827 29.565ZM142.129 31.5565C142.129 32.2176 142.472 32.544 143.2 32.544C143.807 32.5361 144.394 32.3305 144.873 31.9582V30.6612C144.438 30.6076 143.999 30.5824 143.56 30.5858V30.5858C142.547 30.5858 142.171 30.8453 142.171 31.5314L142.129 31.5565Z" fill="url(#paint21_linear_243_1773)"/>
<path d="M150.589 33.1715C150.565 33.1727 150.542 33.169 150.52 33.1606C150.498 33.1522 150.478 33.1393 150.462 33.1227C150.445 33.1061 150.432 33.0863 150.424 33.0644C150.416 33.0426 150.412 33.0192 150.413 32.9958V25.4646C150.409 25.4394 150.41 25.4136 150.418 25.3892C150.426 25.3648 150.439 25.3427 150.457 25.3246C150.475 25.3066 150.497 25.2931 150.522 25.2855C150.546 25.2778 150.572 25.2761 150.597 25.2805H151.183C151.208 25.2761 151.234 25.2778 151.258 25.2855C151.283 25.2931 151.305 25.3066 151.323 25.3246C151.341 25.3427 151.354 25.3648 151.362 25.3892C151.37 25.4136 151.371 25.4394 151.367 25.4646V32.9958C151.37 33.0195 151.367 33.0435 151.359 33.0661C151.351 33.0886 151.338 33.109 151.321 33.1259C151.305 33.1428 151.284 33.1557 151.262 33.1636C151.239 33.1715 151.215 33.1742 151.191 33.1715H150.589Z" fill="url(#paint22_linear_243_1773)"/>
<defs>
<linearGradient id="paint0_linear_243_1773" x1="0" y1="17.7489" x2="21.7034" y2="17.7489" gradientUnits="userSpaceOnUse">
<stop stop-color="#2B398F"/>
<stop offset="1" stop-color="#6367D1"/>
</linearGradient>
<linearGradient id="paint1_linear_243_1773" x1="13.2686" y1="22.2304" x2="30.4844" y2="22.2304" gradientUnits="userSpaceOnUse">
<stop stop-color="#2B398F"/>
<stop offset="1" stop-color="#6367D1"/>
</linearGradient>
<linearGradient id="paint2_linear_243_1773" x1="26.5206" y1="28.5354" x2="37.4743" y2="28.5354" gradientUnits="userSpaceOnUse">
<stop stop-color="#F6F118"/>
<stop offset="0.14" stop-color="#E5F335"/>
<stop offset="0.56" stop-color="#B5F98B"/>
<stop offset="0.86" stop-color="#96FDC0"/>
<stop offset="1" stop-color="#8AFFD5"/>
</linearGradient>
<linearGradient id="paint3_linear_243_1773" x1="45.5386" y1="13.0386" x2="61.8975" y2="13.0386" gradientUnits="userSpaceOnUse">
<stop stop-color="#2B398F"/>
<stop offset="1" stop-color="#6367D1"/>
</linearGradient>
<linearGradient id="paint4_linear_243_1773" x1="62.9668" y1="13.0547" x2="78.767" y2="13.0547" gradientUnits="userSpaceOnUse">
<stop stop-color="#2B398F"/>
<stop offset="1" stop-color="#6367D1"/>
</linearGradient>
<linearGradient id="paint5_linear_243_1773" x1="79.1338" y1="13.0546" x2="94.934" y2="13.0546" gradientUnits="userSpaceOnUse">
<stop stop-color="#2B398F"/>
<stop offset="1" stop-color="#6367D1"/>
</linearGradient>
<linearGradient id="paint6_linear_243_1773" x1="96.9739" y1="13.0255" x2="101.47" y2="13.0255" gradientUnits="userSpaceOnUse">
<stop stop-color="#2B398F"/>
<stop offset="1" stop-color="#6367D1"/>
</linearGradient>
<linearGradient id="paint7_linear_243_1773" x1="105.149" y1="13.0344" x2="120.297" y2="13.0344" gradientUnits="userSpaceOnUse">
<stop stop-color="#2B398F"/>
<stop offset="1" stop-color="#6367D1"/>
</linearGradient>
<linearGradient id="paint8_linear_243_1773" x1="124.004" y1="13.0464" x2="138.222" y2="13.0464" gradientUnits="userSpaceOnUse">
<stop stop-color="#2B398F"/>
<stop offset="1" stop-color="#6367D1"/>
</linearGradient>
<linearGradient id="paint9_linear_243_1773" x1="139.34" y1="13.1511" x2="155" y2="13.1511" gradientUnits="userSpaceOnUse">
<stop stop-color="#2B398F"/>
<stop offset="1" stop-color="#6367D1"/>
</linearGradient>
<linearGradient id="paint10_linear_243_1773" x1="45.311" y1="29.3305" x2="50.1069" y2="29.3305" gradientUnits="userSpaceOnUse">
<stop stop-color="#2B398F"/>
<stop offset="1" stop-color="#6367D1"/>
</linearGradient>
<linearGradient id="paint11_linear_243_1773" x1="53.771" y1="30.3763" x2="58.7918" y2="30.3763" gradientUnits="userSpaceOnUse">
<stop stop-color="#2B398F"/>
<stop offset="1" stop-color="#6367D1"/>
</linearGradient>
<linearGradient id="paint12_linear_243_1773" x1="63.2014" y1="30.3308" x2="67.7981" y2="30.3308" gradientUnits="userSpaceOnUse">
<stop stop-color="#2B398F"/>
<stop offset="1" stop-color="#6367D1"/>
</linearGradient>
<linearGradient id="paint13_linear_243_1773" x1="72.1304" y1="30.3514" x2="76.9085" y2="30.3514" gradientUnits="userSpaceOnUse">
<stop stop-color="#2B398F"/>
<stop offset="1" stop-color="#6367D1"/>
</linearGradient>
<linearGradient id="paint14_linear_243_1773" x1="80.5" y1="30.389" x2="85.1999" y2="30.389" gradientUnits="userSpaceOnUse">
<stop stop-color="#2B398F"/>
<stop offset="1" stop-color="#6367D1"/>
</linearGradient>
<linearGradient id="paint15_linear_243_1773" x1="89.2095" y1="29.3723" x2="90.2409" y2="29.3723" gradientUnits="userSpaceOnUse">
<stop stop-color="#2B398F"/>
<stop offset="1" stop-color="#6367D1"/>
</linearGradient>
<linearGradient id="paint16_linear_243_1773" x1="94.5735" y1="29.276" x2="99.5943" y2="29.276" gradientUnits="userSpaceOnUse">
<stop stop-color="#2B398F"/>
<stop offset="1" stop-color="#6367D1"/>
</linearGradient>
<linearGradient id="paint17_linear_243_1773" x1="104.06" y1="30.3304" x2="108.609" y2="30.3304" gradientUnits="userSpaceOnUse">
<stop stop-color="#2B398F"/>
<stop offset="1" stop-color="#6367D1"/>
</linearGradient>
<linearGradient id="paint18_linear_243_1773" x1="117.524" y1="29.5735" x2="121.168" y2="29.5735" gradientUnits="userSpaceOnUse">
<stop stop-color="#2B398F"/>
<stop offset="1" stop-color="#6367D1"/>
</linearGradient>
<linearGradient id="paint19_linear_243_1773" x1="124.983" y1="30.3763" x2="130.004" y2="30.3763" gradientUnits="userSpaceOnUse">
<stop stop-color="#2B398F"/>
<stop offset="1" stop-color="#6367D1"/>
</linearGradient>
<linearGradient id="paint20_linear_243_1773" x1="133.769" y1="29.5735" x2="137.41" y2="29.5735" gradientUnits="userSpaceOnUse">
<stop stop-color="#2B398F"/>
<stop offset="1" stop-color="#6367D1"/>
</linearGradient>
<linearGradient id="paint21_linear_243_1773" x1="141.175" y1="30.397" x2="145.83" y2="30.397" gradientUnits="userSpaceOnUse">
<stop stop-color="#2B398F"/>
<stop offset="1" stop-color="#6367D1"/>
</linearGradient>
<linearGradient id="paint22_linear_243_1773" x1="150.411" y1="29.2253" x2="151.369" y2="29.2253" gradientUnits="userSpaceOnUse">
<stop stop-color="#2B398F"/>
<stop offset="1" stop-color="#6367D1"/>
</linearGradient>
</defs>
</svg>
