<svg width="29" height="24" viewBox="0 0 29 24" fill="none" xmlns="http://www.w3.org/2000/svg">
<g clip-path="url(#clip0_233_1760)">
<path d="M16.4055 11.9797L19.2327 15.2245L23.0346 17.6637L23.696 12.0002L23.0346 6.46436L19.1598 8.60718L16.4055 11.9797Z" fill="#00832D"/>
<path d="M0 17.1367V21.9628C0 23.0648 0.890844 23.9595 1.98854 23.9595H6.79506L7.79035 20.313L6.79506 17.1367L3.49745 16.1373L0.000113281 17.1367H0Z" fill="#0066DA"/>
<path d="M6.79506 0L0 6.82283L3.49767 7.81979L6.79506 6.82283L7.77223 3.68974L6.79506 0Z" fill="#E94235"/>
<path d="M0 17.1389H6.79506V6.82251H0.000113281L0 17.1389Z" fill="#2684FC"/>
<path d="M27.3755 2.88887L23.0347 6.46453V17.6638L27.3934 21.2533C28.0459 21.7665 29.0004 21.2988 29.0004 20.466V3.66028C29.0004 2.81824 28.0231 2.3528 27.3754 2.88899" fill="#00AC47"/>
<path d="M16.4057 11.9797V17.1367H6.79517V23.9595H21.0464C22.1441 23.9595 23.0348 23.0648 23.0348 21.9628V17.6638L16.4057 11.9797Z" fill="#00AC47"/>
<path d="M21.0464 0H6.79517V6.82283H16.4057V11.9798L23.0349 6.4643V1.99678C23.0349 0.894597 22.1441 0.000113744 21.0464 0.000113744" fill="#FFBA00"/>
</g>
<defs>
<clipPath id="clip0_233_1760">
<rect width="29" height="24" fill="white"/>
</clipPath>
</defs>
</svg>
