<svg width="30" height="30" viewBox="0 0 30 30" fill="none" xmlns="http://www.w3.org/2000/svg">
<path d="M25.3601 12.5638C26.5385 12.5638 27.4938 11.6085 27.4938 10.43C27.4938 9.25158 26.5385 8.29626 25.3601 8.29626C24.1816 8.29626 23.2263 9.25158 23.2263 10.43C23.2263 11.6085 24.1816 12.5638 25.3601 12.5638Z" fill="#2E4EF5"/>
<path d="M23.2263 14.3912H27.4926V18.9612C27.4926 20.1387 26.5363 21.0937 25.3588 21.0937H23.2263V14.3912ZM2.50757 5.24999V24.75L16.5238 27.2237V2.77625L2.50757 5.24999ZM12.8676 12.0137L10.4301 12.075V19.265H8.60132V12.1962L6.16507 12.3187V10.6737L12.8676 10.3087V12.0137ZM17.7413 12.5625V22.9225H20.1788C21.1888 22.9225 22.0076 22.1037 22.0076 21.095V12.5625H17.7413ZM19.5701 6.46875C18.8376 6.46875 18.1888 6.79875 17.7413 7.31V10.5037C18.1876 11.015 18.8376 11.345 19.5701 11.345C20.2167 11.345 20.8368 11.0881 21.2941 10.6309C21.7513 10.1736 22.0082 9.5535 22.0082 8.90687C22.0082 8.26024 21.7513 7.64009 21.2941 7.18286C20.8368 6.72562 20.2167 6.46875 19.5701 6.46875Z" fill="#2E4EF5"/>
</svg>
